<svg width="48" height="42" viewBox="0 0 48 42" fill="none" xmlns="http://www.w3.org/2000/svg">
<path fill-rule="evenodd" clip-rule="evenodd" d="M35 4.5C35 6.7 33.2 8.5 31 8.5C28.8 8.5 27 6.7 27 4.5C27 2.3 28.8 0.5 31 0.5C33.2 0.5 35 2.3 35 4.5ZM0 31.5C0 25.9 4.4 21.5 10 21.5C15.6 21.5 20 25.9 20 31.5C20 37.1 15.6 41.5 10 41.5C4.4 41.5 0 37.1 0 31.5ZM10 38.5C6.2 38.5 3 35.3 3 31.5C3 27.7 6.2 24.5 10 24.5C13.8 24.5 17 27.7 17 31.5C17 35.3 13.8 38.5 10 38.5ZM28.0002 15.3L26.4002 13.7L21.6002 18.5L24.9002 21.94C25.6002 22.68 26.0002 23.66 26.0002 24.7V33.5C26.0002 34.6 25.1002 35.5 24.0002 35.5C22.9002 35.5 22.0002 34.6 22.0002 33.5V25.5L15.6002 19.9C14.8002 19.3 14.4002 18.3 14.4002 17.1C14.4002 16.1 14.8002 15.1 15.6002 14.3L21.2002 8.7C21.8002 7.9 22.8002 7.5 24.0002 7.5C25.2002 7.5 26.2002 7.9 27.2002 8.7L31.0002 12.5C32.4602 13.94 34.2802 15 36.5002 15.36C37.4602 15.52 38.2002 16.36 38.2002 17.34C38.2002 18.56 37.1202 19.52 35.9202 19.34C32.7602 18.86 30.1202 17.42 28.0002 15.3ZM38 21.5C32.4 21.5 28 25.9 28 31.5C28 37.1 32.4 41.5 38 41.5C43.6 41.5 48 37.1 48 31.5C48 25.9 43.6 21.5 38 21.5ZM31 31.5C31 35.3 34.2 38.5 38 38.5C41.8 38.5 45 35.3 45 31.5C45 27.7 41.8 24.5 38 24.5C34.2 24.5 31 27.7 31 31.5Z" fill="#333333"/>
</svg>
