<svg width="16" height="16" viewBox="0 0 16 16" fill="none" xmlns="http://www.w3.org/2000/svg">
<path fill-rule="evenodd" clip-rule="evenodd" d="M7.99984 1.66663C5.05317 1.66663 2.6665 1.99996 2.6665 4.33329V10.6666C2.6665 11.9533 3.71317 13 4.99984 13L4.23317 13.7666C4.0265 13.9733 4.17317 14.3333 4.47317 14.3333H11.5332C11.8332 14.3333 11.9798 13.9733 11.7665 13.7666L10.9998 13C12.2865 13 13.3332 11.9533 13.3332 10.6666V4.33329C13.3332 1.99996 10.9465 1.66663 7.99984 1.66663ZM4.99984 11.6666C4.4465 11.6666 3.99984 11.22 3.99984 10.6666C3.99984 10.1133 4.4465 9.66663 4.99984 9.66663C5.55317 9.66663 5.99984 10.1133 5.99984 10.6666C5.99984 11.22 5.55317 11.6666 4.99984 11.6666ZM3.99984 7.66663H7.33317V4.33329H3.99984V7.66663ZM10.9998 11.6666C10.4465 11.6666 9.99984 11.22 9.99984 10.6666C9.99984 10.1133 10.4465 9.66663 10.9998 9.66663C11.5532 9.66663 11.9998 10.1133 11.9998 10.6666C11.9998 11.22 11.5532 11.6666 10.9998 11.6666ZM8.6665 7.66663H11.9998V4.33329H8.6665V7.66663Z" fill="#636366"/>
</svg>
