<svg width="48" height="48" viewBox="0 0 48 48" fill="none" xmlns="http://www.w3.org/2000/svg">
<path fill-rule="evenodd" clip-rule="evenodd" d="M4 24C4 12.96 12.96 4 24 4C35.04 4 44 12.96 44 24C44 35.04 35.04 44 24 44C12.96 44 4 35.04 4 24ZM26.8201 37.34V36.18C30.3001 35.52 33.0401 33.52 33.0801 29.86C33.0801 24.82 28.7601 23.08 24.7201 22.04C20.6801 21 19.3801 19.9 19.3801 18.22C19.3801 16.3 21.1801 14.94 24.1801 14.94C26.7001 14.94 27.9601 15.92 28.4201 17.44C28.6201 18.16 29.2201 18.68 29.9601 18.68H30.4801C31.6601 18.68 32.5001 17.52 32.1001 16.42C31.3401 14.3 29.6001 12.58 26.8401 11.9V10.66C26.8401 9.2 25.6401 8 24.1801 8H24.1601C22.7001 8 21.5001 9.2 21.5001 10.66V11.86C18.0601 12.6 15.2801 14.84 15.2801 18.28C15.2801 22.38 18.6801 24.42 23.6401 25.62C28.1001 26.68 28.9801 28.24 28.9801 29.9C28.9801 31.12 28.1001 33.08 24.1801 33.08C21.2601 33.08 19.7401 32.04 19.1601 30.54C18.8801 29.84 18.2801 29.34 17.5401 29.34H17.0601C15.8601 29.34 15.0001 30.56 15.4601 31.66C16.4601 34.12 18.8201 35.58 21.4801 36.14V37.34C21.4801 38.8 22.6801 40 24.1401 40H24.1601C25.6201 40 26.8201 38.8 26.8201 37.34Z" fill="#333333"/>
</svg>
