<svg width="190" height="54" viewBox="0 0 190 54" fill="none" xmlns="http://www.w3.org/2000/svg">
<path fill-rule="evenodd" clip-rule="evenodd" d="M169.771 15.1058V17.4797H172.237V17.434H178.399C183.193 17.434 187.027 21.0404 187.027 25.8337C187.027 30.627 183.284 34.1877 178.491 34.1877H172.237V19.8991H169.771V36.5616H178.354C184.653 36.5616 189.492 31.9509 189.492 25.8337C189.492 19.7165 184.699 15.1058 178.445 15.1058H169.771ZM66.4644 15.1058V36.5616H68.9295V29.8053V27.4315V17.4797H74.4532C78.3335 17.4797 80.5704 19.1231 80.5704 22.4099C80.5704 25.7424 78.3335 27.4771 74.4532 27.4771H71.3946V29.8509H74.5445C79.8399 29.8509 82.8985 27.1119 82.8985 22.3643C82.8985 17.7992 79.8399 15.1515 74.5445 15.1515H66.4644V15.1058ZM89.1983 34.2334V15.1058H86.7332V36.5616H98.6023V34.2334H89.1983ZM119.738 36.5616H122.386L112.8 15.1058H110.243L100.611 36.5616H103.213C105.952 30.3531 108.691 24.099 111.43 17.8905C114.215 24.1446 116.999 30.3531 119.738 36.5616ZM134.529 15.0602C128.229 15.0602 123.254 19.7622 123.254 25.8337C123.254 31.8596 128.229 36.6985 134.529 36.6985C139.916 36.6985 144.39 33.0921 145.485 28.2532H142.883C141.833 31.8139 138.455 34.3703 134.529 34.3703C129.736 34.3703 125.764 30.5814 125.764 25.8794C125.764 21.1773 129.736 17.434 134.529 17.434C138.318 17.434 141.559 19.7622 142.746 23.0947H145.394C144.116 18.3927 139.733 15.0602 134.529 15.0602ZM164.567 17.4797V15.1058H150.005V36.5616H164.978V34.2334H152.47V26.8837H163.289V24.5098H152.47V17.434H164.567V17.4797Z" fill="black"/>
<path fill-rule="evenodd" clip-rule="evenodd" d="M52.112 8.943C54.075 7.20828 56.2662 5.56486 58.5944 4.241V6.38657C49.0991 12.1385 39.4668 25.6054 34.3083 34.7812L33.7148 35.8311L17.0068 19.6709C14.3134 26.701 16.0024 34.7812 21.3436 40.1223C29.2867 48.0655 41.5667 47.3807 49.1447 39.3006C55.6727 32.3617 57.3161 21.5425 52.7054 13.1428L52.6598 13.0972L54.075 11.819L54.1206 11.9103C59.3248 21.0404 57.6357 32.9552 50.4686 40.5788C42.2058 49.3893 28.6933 50.0741 20.0197 41.4462C16.8698 38.2963 14.8155 34.2334 14.1308 29.8966C13.4917 25.788 14.0395 21.5425 15.8198 17.7535L16.3676 16.5666L33.304 32.9552C34.9018 30.2618 36.5908 27.6597 38.3712 25.1033C41.1559 21.086 44.2145 17.2057 47.5013 13.5993C48.5513 12.4581 49.6469 11.3625 50.7881 10.3125C48.323 7.16263 44.9449 4.8801 41.2472 3.46494C34.4909 0.95416 27.0955 1.50197 20.7958 4.56055C18.0111 5.93007 15.5003 7.75608 13.3091 10.0843C3.35726 20.7208 1.62254 38.6615 1.85079 52.5849C1.85079 52.9501 1.85079 53.3153 1.85079 53.6805H0.0247719C0.0247719 53.3609 0.0247719 52.9957 0.0247719 52.6762C-0.249131 38.205 1.62254 19.8535 11.9852 8.80605C19.5632 0.725907 31.478 -2.19572 41.8863 1.73022C45.8579 3.09973 49.4186 5.56486 52.112 8.943Z" fill="black"/>
</svg>
