<svg width="334" height="304" viewBox="0 0 334 304" fill="none" xmlns="http://www.w3.org/2000/svg">
<path d="M333.725 23.0149C320.584 31.0015 308.174 39.7142 297.224 49.8791C281.894 31.0015 261.454 17.2064 238.823 9.94578C179.693 -12.5621 111.802 4.1373 68.7315 49.8791C10.3308 112.32 -0.619298 216.147 0.840719 298.192V304H11.0608V297.465C9.60082 218.325 19.0909 116.677 76.0316 56.4136C116.182 13.5761 179.693 -1.67118 235.173 18.6585C257.074 26.6452 276.054 39.7142 289.924 57.1397C283.354 62.9481 276.784 69.4827 270.944 77.4693C251.964 97.799 235.173 120.307 219.113 142.815L219.113 142.815C208.893 157.336 198.673 171.857 189.913 187.104L93.5518 94.1687L90.6318 100.703C80.4117 122.485 77.4916 146.445 81.1417 169.679C85.5217 194.365 97.2018 217.599 114.722 235.024C164.363 283.67 241.013 280.04 288.464 229.942C328.615 186.378 338.835 118.855 308.904 67.3045V66.5784L300.874 73.839V74.5651C327.155 121.759 317.664 183.474 280.434 222.681C237.363 268.423 167.283 272.053 122.022 227.038C91.3618 196.543 81.8717 150.801 97.2018 110.868L192.103 202.352L195.023 195.817C224.953 144.267 279.704 68.0306 333.725 35.3579V23.0149Z" fill="#FBDE26"/>
</svg>
