<svg width="103" height="72" viewBox="0 0 103 72" fill="none" xmlns="http://www.w3.org/2000/svg">
<path d="M26.6776 0C32.6292 0 37.5889 1.96699 41.5566 5.90097C45.5243 9.83495 47.5082 14.8617 47.5082 20.9812C47.5082 24.4781 46.9571 27.7564 45.855 30.8162C44.7528 33.6574 42.8792 37.4821 40.2341 42.2903L20.8306 72H0L13.7825 42.2903C10.4761 40.5418 7.8309 38.0285 5.84703 34.7501C4.08359 31.2533 3.20188 27.5378 3.20188 23.6039C3.20188 16.8287 5.51639 11.2556 10.1454 6.88445C14.7744 2.29482 20.2852 0 26.6776 0ZM82.1694 0C88.121 0 93.0807 1.96699 97.0484 5.90097C101.016 9.83495 103 14.8617 103 20.9812C103 24.4781 102.449 27.7564 101.347 30.8162C100.245 33.6574 98.371 37.4821 95.7258 42.2903L76.3224 72H55.4918L69.2743 42.2903C65.9678 40.5418 63.3227 38.0285 61.3388 34.7501C59.5754 31.2533 58.6937 27.5378 58.6937 23.6039C58.6937 16.8287 61.0082 11.2556 65.6372 6.88445C70.2662 2.29482 75.7769 0 82.1694 0Z" fill="#FBDE26"/>
</svg>
