<svg width="48" height="48" viewBox="0 0 48 48" fill="none" xmlns="http://www.w3.org/2000/svg">
<path fill-rule="evenodd" clip-rule="evenodd" d="M30 24C34.42 24 38 20.42 38 16C38 11.58 34.42 8 30 8C25.58 8 22 11.58 22 16C22 20.42 25.58 24 30 24ZM12 20V16C12 14.9 11.1 14 10 14C8.9 14 8 14.9 8 16V20H4C2.9 20 2 20.9 2 22C2 23.1 2.9 24 4 24H8V28C8 29.1 8.9 30 10 30C11.1 30 12 29.1 12 28V24H16C17.1 24 18 23.1 18 22C18 20.9 17.1 20 16 20H12ZM14 36C14 30.68 24.66 28 30 28C35.34 28 46 30.68 46 36V38C46 39.1 45.1 40 44 40H16C14.9 40 14 39.1 14 38V36Z" fill="#333333"/>
</svg>
